 http://www.shotpix.com/images/69486885028359426922.jpg



3 Weeks To Daytona 2013 LIMITED DVDRip Xvid AC3 UnKnOwN

Runtime ..........:1:20
IMDb URL .........:http://www.imdb.com/title/tt1857605/
Language .........:English
File Size ........:990mb
Release Date: 2013
Source: Your Supplier
File Type: Single AVI
PS3 Compatible: You still whining about your Ps3
Genre: Sports/Thriller
ID: 0
Format: MPEG-4 Visual
Format profile: Advanced Simple@L5
Format settings, BVOP: Yes
Format settings, QPel: No
Format settings, GMC: No warppoints
Format settings, Matrix: Custom
Codec ID: XVID
Codec ID/Hint: XviD
Duration: 1h 20mn
Bit rate: 1380kbps
Width: 680pixels
Height: 384pixels
Display aspect ratio: 16:9
Frame rate: 29.000fps
Color space: YUV
Chroma subsampling: 4:2:0
Bit depth: 8 bits
Scan type: Progressive
Bits/(Pixel*Frame): 0.234
Stream size: 892 MiB (86%)
Writing library: XviD 1.2.1 (UTC 2008-12-04)
ID: 1
Format: AC3
Format/Info: MPEG
Mode extension: CM (complete main)
Codec ID: 2000
Duration: 1h 28mn
Bit rate mode: Constant
Bit rate: 128kbps
Channel(s): 6channels
Channel positions: Front: L R
Sampling rate: 48.0 KHz
Bit depth: 16 bits
Stream size: 302 MiB
Alignment: Aligned on interleaves
Interleave, duration: 42 ms (1.00 video frame)
Interleave, preload duration: 512 ms
3 Weeks To Daytona is the story of a down on his luck stock car racer with one dream left to hold onto: drive with the best. Unfortunately, with a busted car, zero money, and a bad job, Chucks limelight could be fading fast. When a final chance falls his way, can he patch things up with his son, crew chief, and turn himself around before its too late?